<?xml version="1.0" standalone="no"?>
<!DOCTYPE svg PUBLIC "-//W3C//DTD SVG 20010904//EN"
 "http://www.w3.org/TR/2001/REC-SVG-20010904/DTD/svg10.dtd">
<svg version="1.0" xmlns="http://www.w3.org/2000/svg"
 width="896.000000pt" height="896.000000pt" viewBox="0 0 896.000000 896.000000"
 preserveAspectRatio="xMidYMid meet">
<metadata>
Created by potrace 1.11, written by Peter Selinger 2001-2013
</metadata>
<g transform="translate(0.000000,896.000000) scale(0.100000,-0.100000)"
fill="#000000" stroke="none">
<path d="M1409 8316 c-2 -2 -26 -7 -54 -11 -85 -12 -75 -9 -194 -56 -103 -42
-197 -107 -279 -193 -86 -90 -135 -165 -178 -272 -67 -161 -62 72 -61 -3334
l2 -3095 22 -77 c34 -118 102 -246 178 -337 48 -56 183 -171 201 -171 4 0 15
-6 23 -14 20 -17 146 -72 186 -82 146 -33 111 -32 3255 -31 l3095 2 75 22 c85
24 187 69 243 107 21 14 40 26 42 26 4 0 20 14 104 94 24 22 61 65 82 94 39
51 118 199 124 231 2 9 4 16 5 16 1 0 3 7 5 15 2 8 6 26 9 40 3 14 9 36 13 50
13 41 15 6168 2 6253 -51 334 -295 605 -627 700 l-77 22 -3096 2 c-1702 2
-3097 1 -3100 -1z"/>
</g>
</svg>
